<mxfile host="app.diagrams.net" modified="2023-08-01T08:18:28.743Z" agent="Mozilla/5.0 (Windows NT 10.0; Win64; x64) AppleWebKit/537.36 (KHTML, like Gecko) Chrome/115.0.0.0 Safari/537.36" etag="J3Pby3LIMdJk-RhvqOG4" version="21.6.6" type="github">
  <diagram name="Page-1" id="J-5XrPsNwUHamYQZTgDN">
    <mxGraphModel dx="2957" dy="1724" grid="1" gridSize="10" guides="1" tooltips="1" connect="1" arrows="1" fold="1" page="1" pageScale="1" pageWidth="850" pageHeight="1100" math="0" shadow="0">
      <root>
        <mxCell id="0" />
        <mxCell id="1" parent="0" />
        <mxCell id="awT9z1ZbObe2e63cxvBb-7" value="Pool" style="swimlane;childLayout=stackLayout;resizeParent=1;resizeParentMax=0;horizontal=0;startSize=20;horizontalStack=0;html=1;" vertex="1" parent="1">
          <mxGeometry x="-910" y="-1040" width="1560" height="475" as="geometry" />
        </mxCell>
        <mxCell id="awT9z1ZbObe2e63cxvBb-8" value="Teacher" style="swimlane;startSize=20;horizontal=0;html=1;" vertex="1" parent="awT9z1ZbObe2e63cxvBb-7">
          <mxGeometry x="20" width="1540" height="120" as="geometry" />
        </mxCell>
        <mxCell id="awT9z1ZbObe2e63cxvBb-12" style="edgeStyle=orthogonalEdgeStyle;rounded=0;orthogonalLoop=1;jettySize=auto;html=1;" edge="1" parent="awT9z1ZbObe2e63cxvBb-8" source="awT9z1ZbObe2e63cxvBb-1" target="awT9z1ZbObe2e63cxvBb-2">
          <mxGeometry relative="1" as="geometry" />
        </mxCell>
        <mxCell id="awT9z1ZbObe2e63cxvBb-1" value="Start" style="ellipse;whiteSpace=wrap;html=1;aspect=fixed;" vertex="1" parent="awT9z1ZbObe2e63cxvBb-8">
          <mxGeometry x="90" y="35" width="50" height="50" as="geometry" />
        </mxCell>
        <mxCell id="awT9z1ZbObe2e63cxvBb-2" value="Understand the Needs of Kids" style="rounded=1;whiteSpace=wrap;html=1;" vertex="1" parent="awT9z1ZbObe2e63cxvBb-8">
          <mxGeometry x="230" y="30" width="120" height="60" as="geometry" />
        </mxCell>
        <mxCell id="awT9z1ZbObe2e63cxvBb-6" value="Prepare Lesson Plans" style="rounded=1;whiteSpace=wrap;html=1;" vertex="1" parent="awT9z1ZbObe2e63cxvBb-8">
          <mxGeometry x="400" y="30" width="120" height="60" as="geometry" />
        </mxCell>
        <mxCell id="awT9z1ZbObe2e63cxvBb-9" value="Student" style="swimlane;startSize=20;horizontal=0;html=1;" vertex="1" parent="awT9z1ZbObe2e63cxvBb-7">
          <mxGeometry x="20" y="120" width="1540" height="135" as="geometry" />
        </mxCell>
        <mxCell id="awT9z1ZbObe2e63cxvBb-3" value="Create a Fun Learning Environment" style="rounded=1;whiteSpace=wrap;html=1;" vertex="1" parent="awT9z1ZbObe2e63cxvBb-9">
          <mxGeometry x="230" y="15" width="120" height="60" as="geometry" />
        </mxCell>
        <mxCell id="awT9z1ZbObe2e63cxvBb-4" value="Use Visual Aids" style="rounded=1;whiteSpace=wrap;html=1;" vertex="1" parent="awT9z1ZbObe2e63cxvBb-9">
          <mxGeometry x="540" y="15" width="120" height="60" as="geometry" />
        </mxCell>
        <mxCell id="awT9z1ZbObe2e63cxvBb-5" value="Encourage Questions and Interaction" style="rounded=1;whiteSpace=wrap;html=1;" vertex="1" parent="awT9z1ZbObe2e63cxvBb-9">
          <mxGeometry x="730" y="15" width="120" height="60" as="geometry" />
        </mxCell>
        <mxCell id="awT9z1ZbObe2e63cxvBb-11" value="" style="rounded=1;whiteSpace=wrap;html=1;" vertex="1" parent="awT9z1ZbObe2e63cxvBb-9">
          <mxGeometry x="890" y="15" width="120" height="60" as="geometry" />
        </mxCell>
        <mxCell id="awT9z1ZbObe2e63cxvBb-10" value="Parents" style="swimlane;startSize=20;horizontal=0;html=1;" vertex="1" parent="awT9z1ZbObe2e63cxvBb-7">
          <mxGeometry x="20" y="255" width="1540" height="220" as="geometry" />
        </mxCell>
        <mxCell id="awT9z1ZbObe2e63cxvBb-14" style="edgeStyle=orthogonalEdgeStyle;rounded=0;orthogonalLoop=1;jettySize=auto;html=1;" edge="1" parent="awT9z1ZbObe2e63cxvBb-7" source="awT9z1ZbObe2e63cxvBb-2" target="awT9z1ZbObe2e63cxvBb-3">
          <mxGeometry relative="1" as="geometry" />
        </mxCell>
        <mxCell id="awT9z1ZbObe2e63cxvBb-15" style="edgeStyle=orthogonalEdgeStyle;rounded=0;orthogonalLoop=1;jettySize=auto;html=1;entryX=0.43;entryY=1.029;entryDx=0;entryDy=0;entryPerimeter=0;" edge="1" parent="awT9z1ZbObe2e63cxvBb-7" source="awT9z1ZbObe2e63cxvBb-3" target="awT9z1ZbObe2e63cxvBb-6">
          <mxGeometry relative="1" as="geometry" />
        </mxCell>
        <mxCell id="awT9z1ZbObe2e63cxvBb-16" style="edgeStyle=orthogonalEdgeStyle;rounded=0;orthogonalLoop=1;jettySize=auto;html=1;" edge="1" parent="awT9z1ZbObe2e63cxvBb-7" source="awT9z1ZbObe2e63cxvBb-6" target="awT9z1ZbObe2e63cxvBb-4">
          <mxGeometry relative="1" as="geometry" />
        </mxCell>
        <mxCell id="awT9z1ZbObe2e63cxvBb-18" style="edgeStyle=orthogonalEdgeStyle;rounded=0;orthogonalLoop=1;jettySize=auto;html=1;" edge="1" parent="awT9z1ZbObe2e63cxvBb-7" source="awT9z1ZbObe2e63cxvBb-6" target="awT9z1ZbObe2e63cxvBb-5">
          <mxGeometry relative="1" as="geometry" />
        </mxCell>
      </root>
    </mxGraphModel>
  </diagram>
</mxfile>
